# xmcd
#
# Track frame offsets:
#	187
#	17745
#	28552
#	47537
#	62640
#	74715
#	88640
#	102197
#	114760
#	132075
#	148085
#	164565
#	178425
#	191252
#	203892
#	216070
#	228890
#
# Disc length: 3261 seconds
#
# Revision: 0
# Processed by: cddbd v1.5.2PL0 Copyright (c) Steve Scherf et al.
# Submitted via: audiograbber 1.83.01
#
DISCID=ee0cbb11
DTITLE=Chesnutt, Mark - Longnecks and Short Stories
DYEAR=1900
DGENRE=Country
TTITLE0=Old Country
TTITLE1=Old Flames Have New Names
TTITLE2=I'll Think Of Something
TTITLE3=It's Not Over (If I'm Not Over You)
TTITLE4=Uptown Downtown (Misery's All The Same)
TTITLE5=Bubba Shot The Jukebox
TTITLE6=Postpone The Pain
TTITLE7=Talking To Hank (With Special Guest George Jones)
TTITLE8=I'm Not Getting Any Better At Goodbyes 
TTITLE9=Who Will The Next Fool Be
TTITLE10=Too Cold At Home
TTITLE11=Brother Jukebox
TTITLE12=Blame It On Texas
TTITLE13=Your Love Is A Miracle
TTITLE14=Too Good A Memory
TTITLE15=Hey You There In The Mirror
TTITLE16=Friends in Low Places
EXTD=
EXTT0=
EXTT1=
EXTT2=
EXTT3=
EXTT4=
EXTT5=
EXTT6=
EXTT7=
EXTT8=
EXTT9=
EXTT10=
EXTT11=
EXTT12=
EXTT13=
EXTT14=
EXTT15=
EXTT16=
PLAYORDER=
